M48
METRIC,LZ,000.000
;FILE_FORMAT=3:3
;TYPE=PLATED
;Layer: PTH_Through_Via
;EasyEDA v6.5.23, 2023-06-09 15:01:11
;604b8d365768463b9eb07bbcea70d2b6,6219c82cfec74c238c9999bd11a2e976,10
;Gerber Generator version 0.2
;Holesize 1 = 0.305 mm
T01C0.305
%
G05
G90
T01
X035198Y-023601
X035198Y-028600
X035198Y-042801
X035198Y-047599
X035198Y-061201
X035198Y-067201
X054200Y-020200
X073199Y-018201
X092198Y-020000
X092198Y-025600
X073199Y-023200
X054200Y-025001
X054200Y-039001
X073198Y-037038
X092198Y-039200
X092198Y-044401
X073199Y-042801
X054200Y-044800
X054199Y-058234
X073199Y-056200
X092198Y-058001
X092198Y-064201
X073199Y-062199
X054200Y-064585
X057999Y-078200
X060200Y-081600
X085198Y-082001
X084199Y-079600
X103799Y-083800
X103799Y-085999
X126599Y-053400
X125198Y-053601
X123999Y-053600
X118399Y-050000
X115599Y-047400
X116999Y-046800
X115399Y-082000
X136798Y-053401
X111799Y-063200
X135399Y-053200
X111599Y-025200
X111199Y-043600
X127799Y-049400
X114599Y-043601
X134399Y-038600
X136799Y-038600
X130246Y-031200
X119199Y-051600
X124599Y-040200
X126399Y-037800
X122599Y-030200
X119399Y-025200
X123999Y-027000
X133999Y-028600
X133999Y-029600
X138000Y-023000
X138000Y-049601
X137599Y-061600
X127999Y-061600
X127399Y-026600
X138000Y-035001
X118000Y-037000
X016180Y-031780
X016180Y-050780
X016180Y-069922
M30
