M48
METRIC,LZ,000.000
;FILE_FORMAT=3:3
;TYPE=PLATED
;Layer: PTH_Through
;EasyEDA v6.5.23, 2023-06-09 15:01:11
;604b8d365768463b9eb07bbcea70d2b6,6219c82cfec74c238c9999bd11a2e976,10
;Gerber Generator version 0.2
;Holesize 1 = 0.701 mm
T01C0.701
;Holesize 2 = 0.990 mm
T02C0.990
%
G05
G90
T01
X128899Y-017279G85X128899Y-018079
X136099Y-017279G85X136099Y-018079
X134924Y-020349
X130074Y-020349
T02
X016172Y-021245
X011583Y-023865
X006992Y-021245
X035172Y-021194
X030582Y-023814
X025991Y-021194
X054171Y-017232
X049581Y-019852
X044991Y-017232
X073170Y-015200
X068580Y-017820
X063990Y-015200
X092169Y-017232
X087580Y-019852
X082989Y-017232
X111168Y-021194
X106579Y-023814
X101988Y-021194
X016172Y-040244
X011583Y-042864
X006992Y-040244
X035172Y-040295
X030582Y-042915
X025991Y-040295
X054171Y-036231
X049581Y-038851
X044991Y-036231
X073170Y-034199
X068580Y-036819
X063990Y-034199
X092169Y-036231
X087580Y-038851
X082989Y-036231
X111168Y-040244
X106579Y-042864
X101988Y-040244
X016172Y-059243
X011583Y-061864
X006992Y-059243
X035172Y-059192
X030582Y-061813
X025991Y-059192
X054171Y-055230
X049581Y-057850
X044991Y-055230
X073170Y-053249
X068580Y-055869
X063990Y-053249
X092169Y-055230
X087580Y-057850
X082989Y-055230
X111168Y-059192
X106579Y-061813
X101988Y-059192
X016172Y-078242
X011583Y-080863
X006992Y-078242
X035172Y-078192
X030582Y-080812
X025991Y-078192
X054171Y-074178
X049581Y-076799
X044991Y-074178
X073170Y-072197
X068580Y-074818
X063990Y-072197
X092169Y-074229
X087580Y-076850
X082989Y-074229
X111168Y-078192
X106579Y-080812
X101988Y-078192
X130168Y-078192
X125578Y-080812
X120987Y-078192
X130168Y-097191
X125578Y-099811
X120987Y-097191
X111168Y-097242
X106579Y-099862
X101988Y-097242
X092169Y-093279
X087580Y-095900
X082989Y-093279
M30
