M48
METRIC,LZ,000.000
;FILE_FORMAT=3:3
;TYPE=NON_PLATED
;Layer: NPTH_Through
;EasyEDA v6.5.23, 2023-06-09 15:01:11
;604b8d365768463b9eb07bbcea70d2b6,6219c82cfec74c238c9999bd11a2e976,10
;Gerber Generator version 0.2
;Holesize 1 = 2.032 mm
T01C2.032
;Holesize 2 = 2.341 mm
T02C2.341
;Holesize 3 = 5.151 mm
T03C5.151
%
G05
G90
T01
X040000Y-003000
X100000Y-003000
X079000Y-099000
X003000Y-009000
X003000Y-084000
X134000Y-103000
T02
X011593Y-021324
X030592Y-021274
X049591Y-017311
X068590Y-015279
X087590Y-017311
X106589Y-021274
X011593Y-040324
X030592Y-040374
X049591Y-036310
X068590Y-034278
X087590Y-036310
X106589Y-040324
X011593Y-059323
X030592Y-059272
X049591Y-055310
X068590Y-053328
X087590Y-055310
X106589Y-059272
X011593Y-078322
X030592Y-078271
X049591Y-074258
X068590Y-072277
X087590Y-074309
X106589Y-078271
X125588Y-078271
X125588Y-097270
X106589Y-097321
X087590Y-093359
T03
X011593Y-017634
X030592Y-017584
X049591Y-013621
X068590Y-011589
X087590Y-013621
X106589Y-017584
X011593Y-036634
X030592Y-036684
X049591Y-032620
X068590Y-030588
X087590Y-032620
X106589Y-036634
X011593Y-055633
X030592Y-055582
X049591Y-051620
X068590Y-049638
X087590Y-051620
X106589Y-055582
X011593Y-074632
X030592Y-074581
X049591Y-070568
X068590Y-068587
X087590Y-070619
X106589Y-074581
X125588Y-074581
X125588Y-093580
X106589Y-093631
X087590Y-089669
M30
