G04 Layer: TopSolderMaskLayer*
G04 EasyEDA v6.5.23, 2023-06-09 15:01:11*
G04 604b8d365768463b9eb07bbcea70d2b6,6219c82cfec74c238c9999bd11a2e976,10*
G04 Gerber Generator version 0.2*
G04 Scale: 100 percent, Rotated: No, Reflected: No *
G04 Dimensions in millimeters *
G04 leading zeros omitted , absolute positions ,4 integer and 5 decimal *
%FSLAX45Y45*%
%MOMM*%

%AMMACRO1*1,1,$1,$2,$3*1,1,$1,$4,$5*1,1,$1,0-$2,0-$3*1,1,$1,0-$4,0-$5*20,1,$1,$2,$3,$4,$5,0*20,1,$1,$4,$5,0-$2,0-$3,0*20,1,$1,0-$2,0-$3,0-$4,0-$5,0*20,1,$1,0-$4,0-$5,$2,$3,0*4,1,4,$2,$3,$4,$5,0-$2,0-$3,0-$4,0-$5,$2,$3,0*%
%ADD10MACRO1,0.1016X-0.4X0.45X0.4X0.45*%
%ADD11MACRO1,0.1016X-0.95X1.188X0.95X1.188*%
%ADD12MACRO1,0.1016X0.475X-0.575X-0.475X-0.575*%
%ADD13MACRO1,0.1016X-0.4X-0.4X-0.4X0.4*%
%ADD14MACRO1,0.1016X0.4032X0.432X0.4032X-0.432*%
%ADD15MACRO1,0.1016X-0.4032X0.432X-0.4032X-0.432*%
%ADD16MACRO1,0.1016X-0.4032X-0.432X-0.4032X0.432*%
%ADD17MACRO1,0.1016X0.4032X-0.432X0.4032X0.432*%
%ADD18MACRO1,0.1016X-0.7X0.55X0.7X0.55*%
%ADD19MACRO1,0.1016X0.475X-1.05X-0.475X-1.05*%
%ADD20MACRO1,0.1016X1.05X-0.475X-1.05X-0.475*%
%ADD21MACRO1,0.1016X2.5X2.5X2.5X-2.5*%
%ADD22MACRO1,0.1016X0.55X1.25X0.55X-1.25*%
%ADD23MACRO1,0.1016X1.8X-1.17X-1.8X-1.17*%
%ADD24MACRO1,0.1016X-0.2X-0.7X-0.2X0.7*%
%ADD25O,1.4015974000000002X2.3015956*%
%ADD26C,1.4016*%
%ADD27C,1.7016*%

%LPD*%
D10*
G01*
X13669911Y-3020039D03*
G01*
X13529911Y-3020039D03*
G01*
X13669911Y-2820040D03*
G01*
X13529911Y-2820040D03*
G01*
X12519914Y-2820040D03*
G01*
X12379914Y-2820040D03*
G01*
X12519914Y-3020039D03*
G01*
X12379914Y-3020039D03*
D11*
G01*
X13739776Y-2520041D03*
G01*
X13360046Y-2520041D03*
D12*
G01*
X1190696Y-2660040D03*
G01*
X1529176Y-2660040D03*
G01*
X3090692Y-2660040D03*
G01*
X3429172Y-2660040D03*
G01*
X4990688Y-2260041D03*
G01*
X5329168Y-2260041D03*
G01*
X6890684Y-2060041D03*
G01*
X7229165Y-2060041D03*
G01*
X8790680Y-2260041D03*
G01*
X9129161Y-2260041D03*
G01*
X10710677Y-2660040D03*
G01*
X11049157Y-2660040D03*
G01*
X1190696Y-4540036D03*
G01*
X1529176Y-4540036D03*
G01*
X3090692Y-4540036D03*
G01*
X3429172Y-4540036D03*
G01*
X4970688Y-4120037D03*
G01*
X5309168Y-4120037D03*
G01*
X6870684Y-3920037D03*
G01*
X7209165Y-3920037D03*
G01*
X8790680Y-4140037D03*
G01*
X9129161Y-4140037D03*
G01*
X10690677Y-4540036D03*
G01*
X11029157Y-4540036D03*
G01*
X1190696Y-6440032D03*
G01*
X1529176Y-6440032D03*
G01*
X3070692Y-6440032D03*
G01*
X3409172Y-6440032D03*
G01*
X4970688Y-6040033D03*
G01*
X5309168Y-6040033D03*
G01*
X6890684Y-5860034D03*
G01*
X7229165Y-5860034D03*
G01*
X8810680Y-6080033D03*
G01*
X9149161Y-6080033D03*
G01*
X10730677Y-6460032D03*
G01*
X11069157Y-6460032D03*
G01*
X1190696Y-8380028D03*
G01*
X1529176Y-8380028D03*
G01*
X3090692Y-8400028D03*
G01*
X3429172Y-8400028D03*
G01*
X4990688Y-7980029D03*
G01*
X5329168Y-7980029D03*
G01*
X6910684Y-7780030D03*
G01*
X7249165Y-7780030D03*
G01*
X8790680Y-7960029D03*
G01*
X9129161Y-7960029D03*
G01*
X10710677Y-8340029D03*
G01*
X11049157Y-8340029D03*
G01*
X8810680Y-9860025D03*
G01*
X9149161Y-9860025D03*
G01*
X10730677Y-10260025D03*
G01*
X11069157Y-10260025D03*
G01*
X12590673Y-10260025D03*
G01*
X12929153Y-10260025D03*
G01*
X12610673Y-8340029D03*
G01*
X12949153Y-8340029D03*
D13*
G01*
X13035003Y-2520040D03*
G01*
X12864823Y-2520040D03*
D14*
G01*
X13124587Y-3020039D03*
D15*
G01*
X13275237Y-3020039D03*
D14*
G01*
X12004589Y-5540034D03*
D15*
G01*
X12155239Y-5540034D03*
D16*
G01*
X13035238Y-2760040D03*
D17*
G01*
X12884588Y-2760040D03*
D18*
G01*
X12144913Y-5730034D03*
G01*
X12794914Y-5730034D03*
G01*
X12144913Y-6030033D03*
G01*
X12794914Y-6030033D03*
G01*
X13104911Y-5730034D03*
G01*
X13754912Y-5730034D03*
G01*
X13104911Y-6030033D03*
G01*
X13754912Y-6030033D03*
D19*
G01*
X13801430Y-3320061D03*
G01*
X13674430Y-3320061D03*
G01*
X13547430Y-3320061D03*
G01*
X13420430Y-3320061D03*
G01*
X13293430Y-3320061D03*
G01*
X13166430Y-3320061D03*
G01*
X13039430Y-3320061D03*
G01*
X12912430Y-3320061D03*
G01*
X12785430Y-3320061D03*
G01*
X12658430Y-3320061D03*
G01*
X12531430Y-3320061D03*
G01*
X12404430Y-3320061D03*
G01*
X12277430Y-3320061D03*
G01*
X12150430Y-3320061D03*
D20*
G01*
X11998408Y-3648547D03*
G01*
X11998408Y-3775547D03*
G01*
X11998408Y-3902547D03*
G01*
X11998408Y-4029547D03*
G01*
X11998408Y-4156547D03*
G01*
X11998434Y-4283547D03*
G01*
X11998434Y-4410547D03*
G01*
X11998434Y-4537547D03*
G01*
X11998434Y-4664547D03*
G01*
X11998434Y-4791547D03*
D19*
G01*
X12150430Y-5120032D03*
G01*
X12277430Y-5120032D03*
G01*
X12404430Y-5120032D03*
G01*
X12531430Y-5120032D03*
G01*
X12658430Y-5120032D03*
G01*
X12785430Y-5120032D03*
G01*
X12912430Y-5120032D03*
G01*
X13039430Y-5120032D03*
G01*
X13166430Y-5120032D03*
G01*
X13293430Y-5120032D03*
G01*
X13420430Y-5120032D03*
G01*
X13547430Y-5120032D03*
G01*
X13674430Y-5120032D03*
G01*
X13801430Y-5120032D03*
D21*
G01*
X13047116Y-4118344D03*
D22*
G01*
X12069917Y-2517034D03*
G01*
X12299914Y-2517034D03*
G01*
X12529911Y-2517034D03*
D23*
G01*
X12299914Y-1923039D03*
D24*
G01*
X13119912Y-2072170D03*
G01*
X13184911Y-2072170D03*
G01*
X13249912Y-2072170D03*
G01*
X13314908Y-2072170D03*
G01*
X13379909Y-2072170D03*
D25*
G01*
X12889915Y-1767916D03*
G01*
X13609904Y-1767916D03*
D26*
G01*
X13492403Y-2034920D03*
G01*
X13007416Y-2034920D03*
D27*
G01*
X1617243Y-2124532D03*
G01*
X1158239Y-2386533D03*
G01*
X699236Y-2124532D03*
G01*
X3517163Y-2119452D03*
G01*
X3058159Y-2381453D03*
G01*
X2599156Y-2119452D03*
G01*
X5417083Y-1723212D03*
G01*
X4958079Y-1985213D03*
G01*
X4499076Y-1723212D03*
G01*
X7317003Y-1520012D03*
G01*
X6858000Y-1782013D03*
G01*
X6398996Y-1520012D03*
G01*
X9216923Y-1723212D03*
G01*
X8757920Y-1985213D03*
G01*
X8298916Y-1723212D03*
G01*
X11116843Y-2119452D03*
G01*
X10657840Y-2381453D03*
G01*
X10198836Y-2119452D03*
G01*
X1617243Y-4024452D03*
G01*
X1158239Y-4286453D03*
G01*
X699236Y-4024452D03*
G01*
X3517163Y-4029532D03*
G01*
X3058159Y-4291533D03*
G01*
X2599156Y-4029532D03*
G01*
X5417083Y-3623132D03*
G01*
X4958079Y-3885133D03*
G01*
X4499076Y-3623132D03*
G01*
X7317003Y-3419932D03*
G01*
X6858000Y-3681933D03*
G01*
X6398996Y-3419932D03*
G01*
X9216923Y-3623132D03*
G01*
X8757920Y-3885133D03*
G01*
X8298916Y-3623132D03*
G01*
X11116843Y-4024452D03*
G01*
X10657840Y-4286453D03*
G01*
X10198836Y-4024452D03*
G01*
X1617243Y-5924372D03*
G01*
X1158239Y-6186373D03*
G01*
X699236Y-5924372D03*
G01*
X3517163Y-5919292D03*
G01*
X3058159Y-6181293D03*
G01*
X2599156Y-5919292D03*
G01*
X5417083Y-5523052D03*
G01*
X4958079Y-5785053D03*
G01*
X4499076Y-5523052D03*
G01*
X7317003Y-5324932D03*
G01*
X6858000Y-5586933D03*
G01*
X6398996Y-5324932D03*
G01*
X9216923Y-5523052D03*
G01*
X8757920Y-5785053D03*
G01*
X8298916Y-5523052D03*
G01*
X11116843Y-5919292D03*
G01*
X10657840Y-6181293D03*
G01*
X10198836Y-5919292D03*
G01*
X1617243Y-7824292D03*
G01*
X1158239Y-8086293D03*
G01*
X699236Y-7824292D03*
G01*
X3517163Y-7819212D03*
G01*
X3058159Y-8081213D03*
G01*
X2599156Y-7819212D03*
G01*
X5417083Y-7417892D03*
G01*
X4958079Y-7679893D03*
G01*
X4499076Y-7417892D03*
G01*
X7317003Y-7219772D03*
G01*
X6858000Y-7481773D03*
G01*
X6398996Y-7219772D03*
G01*
X9216923Y-7422972D03*
G01*
X8757920Y-7684973D03*
G01*
X8298916Y-7422972D03*
G01*
X11116843Y-7819212D03*
G01*
X10657840Y-8081213D03*
G01*
X10198836Y-7819212D03*
G01*
X13016763Y-7819212D03*
G01*
X12557759Y-8081213D03*
G01*
X12098756Y-7819212D03*
G01*
X13016763Y-9719132D03*
G01*
X12557759Y-9981133D03*
G01*
X12098756Y-9719132D03*
G01*
X11116843Y-9724212D03*
G01*
X10657840Y-9986213D03*
G01*
X10198836Y-9724212D03*
G01*
X9216923Y-9327972D03*
G01*
X8757920Y-9589973D03*
G01*
X8298916Y-9327972D03*
M02*
