G04 Layer: BoardOutlineLayer*
G04 EasyEDA v6.5.23, 2023-06-09 15:01:11*
G04 604b8d365768463b9eb07bbcea70d2b6,6219c82cfec74c238c9999bd11a2e976,10*
G04 Gerber Generator version 0.2*
G04 Scale: 100 percent, Rotated: No, Reflected: No *
G04 Dimensions in millimeters *
G04 leading zeros omitted , absolute positions ,4 integer and 5 decimal *
%FSLAX45Y45*%
%MOMM*%

%ADD10C,0.2540*%
D10*
X199897Y-599947D02*
G01*
X199897Y-599947D01*
X199897Y-599947D01*
X3243834Y-599947D01*
X3843781Y0D01*
X10199877Y0D01*
X10599927Y-500126D01*
X11999975Y-500126D01*
X12700000Y-1599945D01*
X13899895Y-1599945D01*
X14599920Y-2599944D01*
X14599920Y-5599937D01*
X14599920Y-7199884D01*
X13699997Y-8199881D01*
X13699997Y-10400029D01*
X13599922Y-10500105D01*
X13493750Y-10599928D01*
X9199981Y-10599978D01*
X8700008Y-10199878D01*
X7811008Y-10199878D01*
X7599934Y-9999979D01*
X7599934Y-9878821D01*
X7599934Y-8742934D01*
X7400036Y-8500110D01*
X7400036Y-8500110D01*
X5500115Y-8500110D01*
X5299963Y-8700008D01*
X199999Y-8699982D01*
X0Y-8499983D01*
X0Y-8499983D01*
X0Y-799845D01*
X199897Y-599947D01*
X1468226Y-1656412D02*
G01*
X1468226Y-1870407D01*
X1468226Y-1870407D02*
G01*
X1375222Y-1870407D01*
X1375222Y-1870407D02*
G01*
X1266225Y-1979401D01*
X1266225Y-1979401D02*
G01*
X1266225Y-2113406D01*
X1266225Y-2113406D02*
G01*
X1052222Y-2113406D01*
X1052222Y-2113406D02*
G01*
X1052222Y-1980407D01*
X1052222Y-1980407D02*
G01*
X942223Y-1870407D01*
X942223Y-1870407D02*
G01*
X850221Y-1870407D01*
X850221Y-1870407D02*
G01*
X850221Y-1656412D01*
X850221Y-1656412D02*
G01*
X935228Y-1656412D01*
X935228Y-1656412D02*
G01*
X945225Y-1646405D01*
X945225Y-1646405D02*
G01*
X945225Y-1646405D01*
X945225Y-1646405D02*
G01*
X1052222Y-1539402D01*
X1052222Y-1539402D02*
G01*
X1052222Y-1459405D01*
X1052222Y-1459405D02*
G01*
X1266225Y-1459405D01*
X1266225Y-1459405D02*
G01*
X1266225Y-1544408D01*
X1266225Y-1544408D02*
G01*
X1378224Y-1656412D01*
X1378224Y-1656412D02*
G01*
X1468226Y-1656412D01*
X3368146Y-1651332D02*
G01*
X3368146Y-1865327D01*
X3368146Y-1865327D02*
G01*
X3275142Y-1865327D01*
X3275142Y-1865327D02*
G01*
X3166145Y-1974321D01*
X3166145Y-1974321D02*
G01*
X3166145Y-2108327D01*
X3166145Y-2108327D02*
G01*
X2952142Y-2108327D01*
X2952142Y-2108327D02*
G01*
X2952142Y-1975327D01*
X2952142Y-1975327D02*
G01*
X2842143Y-1865327D01*
X2842143Y-1865327D02*
G01*
X2750141Y-1865327D01*
X2750141Y-1865327D02*
G01*
X2750141Y-1651332D01*
X2750141Y-1651332D02*
G01*
X2835147Y-1651332D01*
X2835147Y-1651332D02*
G01*
X2845145Y-1641325D01*
X2845145Y-1641325D02*
G01*
X2845145Y-1641325D01*
X2845145Y-1641325D02*
G01*
X2952142Y-1534322D01*
X2952142Y-1534322D02*
G01*
X2952142Y-1454325D01*
X2952142Y-1454325D02*
G01*
X3166145Y-1454325D01*
X3166145Y-1454325D02*
G01*
X3166145Y-1539328D01*
X3166145Y-1539328D02*
G01*
X3278144Y-1651332D01*
X3278144Y-1651332D02*
G01*
X3368146Y-1651332D01*
X5268066Y-1255092D02*
G01*
X5268066Y-1469087D01*
X5268066Y-1469087D02*
G01*
X5175062Y-1469087D01*
X5175062Y-1469087D02*
G01*
X5066065Y-1578081D01*
X5066065Y-1578081D02*
G01*
X5066065Y-1712087D01*
X5066065Y-1712087D02*
G01*
X4852062Y-1712087D01*
X4852062Y-1712087D02*
G01*
X4852062Y-1579087D01*
X4852062Y-1579087D02*
G01*
X4742063Y-1469087D01*
X4742063Y-1469087D02*
G01*
X4650061Y-1469087D01*
X4650061Y-1469087D02*
G01*
X4650061Y-1255092D01*
X4650061Y-1255092D02*
G01*
X4735068Y-1255092D01*
X4735068Y-1255092D02*
G01*
X4745065Y-1245085D01*
X4745065Y-1245085D02*
G01*
X4745065Y-1245085D01*
X4745065Y-1245085D02*
G01*
X4852062Y-1138082D01*
X4852062Y-1138082D02*
G01*
X4852062Y-1058085D01*
X4852062Y-1058085D02*
G01*
X5066065Y-1058085D01*
X5066065Y-1058085D02*
G01*
X5066065Y-1143088D01*
X5066065Y-1143088D02*
G01*
X5178064Y-1255092D01*
X5178064Y-1255092D02*
G01*
X5268066Y-1255092D01*
X7167986Y-1051892D02*
G01*
X7167986Y-1265887D01*
X7167986Y-1265887D02*
G01*
X7074982Y-1265887D01*
X7074982Y-1265887D02*
G01*
X6965985Y-1374881D01*
X6965985Y-1374881D02*
G01*
X6965985Y-1508887D01*
X6965985Y-1508887D02*
G01*
X6751982Y-1508887D01*
X6751982Y-1508887D02*
G01*
X6751982Y-1375887D01*
X6751982Y-1375887D02*
G01*
X6641983Y-1265887D01*
X6641983Y-1265887D02*
G01*
X6549981Y-1265887D01*
X6549981Y-1265887D02*
G01*
X6549981Y-1051892D01*
X6549981Y-1051892D02*
G01*
X6634988Y-1051892D01*
X6634988Y-1051892D02*
G01*
X6644985Y-1041885D01*
X6644985Y-1041885D02*
G01*
X6644985Y-1041885D01*
X6644985Y-1041885D02*
G01*
X6751982Y-934882D01*
X6751982Y-934882D02*
G01*
X6751982Y-854885D01*
X6751982Y-854885D02*
G01*
X6965985Y-854885D01*
X6965985Y-854885D02*
G01*
X6965985Y-939888D01*
X6965985Y-939888D02*
G01*
X7077984Y-1051892D01*
X7077984Y-1051892D02*
G01*
X7167986Y-1051892D01*
X9067906Y-1255092D02*
G01*
X9067906Y-1469087D01*
X9067906Y-1469087D02*
G01*
X8974902Y-1469087D01*
X8974902Y-1469087D02*
G01*
X8865905Y-1578081D01*
X8865905Y-1578081D02*
G01*
X8865905Y-1712087D01*
X8865905Y-1712087D02*
G01*
X8651902Y-1712087D01*
X8651902Y-1712087D02*
G01*
X8651902Y-1579087D01*
X8651902Y-1579087D02*
G01*
X8541903Y-1469087D01*
X8541903Y-1469087D02*
G01*
X8449901Y-1469087D01*
X8449901Y-1469087D02*
G01*
X8449901Y-1255092D01*
X8449901Y-1255092D02*
G01*
X8534908Y-1255092D01*
X8534908Y-1255092D02*
G01*
X8544905Y-1245085D01*
X8544905Y-1245085D02*
G01*
X8544905Y-1245085D01*
X8544905Y-1245085D02*
G01*
X8651902Y-1138082D01*
X8651902Y-1138082D02*
G01*
X8651902Y-1058085D01*
X8651902Y-1058085D02*
G01*
X8865905Y-1058085D01*
X8865905Y-1058085D02*
G01*
X8865905Y-1143088D01*
X8865905Y-1143088D02*
G01*
X8977904Y-1255092D01*
X8977904Y-1255092D02*
G01*
X9067906Y-1255092D01*
X10967826Y-1651332D02*
G01*
X10967826Y-1865327D01*
X10967826Y-1865327D02*
G01*
X10874822Y-1865327D01*
X10874822Y-1865327D02*
G01*
X10765825Y-1974321D01*
X10765825Y-1974321D02*
G01*
X10765825Y-2108327D01*
X10765825Y-2108327D02*
G01*
X10551822Y-2108327D01*
X10551822Y-2108327D02*
G01*
X10551822Y-1975327D01*
X10551822Y-1975327D02*
G01*
X10441823Y-1865327D01*
X10441823Y-1865327D02*
G01*
X10349821Y-1865327D01*
X10349821Y-1865327D02*
G01*
X10349821Y-1651332D01*
X10349821Y-1651332D02*
G01*
X10434827Y-1651332D01*
X10434827Y-1651332D02*
G01*
X10444825Y-1641325D01*
X10444825Y-1641325D02*
G01*
X10444825Y-1641325D01*
X10444825Y-1641325D02*
G01*
X10551822Y-1534322D01*
X10551822Y-1534322D02*
G01*
X10551822Y-1454325D01*
X10551822Y-1454325D02*
G01*
X10765825Y-1454325D01*
X10765825Y-1454325D02*
G01*
X10765825Y-1539328D01*
X10765825Y-1539328D02*
G01*
X10877824Y-1651332D01*
X10877824Y-1651332D02*
G01*
X10967826Y-1651332D01*
X1468226Y-3556332D02*
G01*
X1468226Y-3770327D01*
X1468226Y-3770327D02*
G01*
X1375222Y-3770327D01*
X1375222Y-3770327D02*
G01*
X1266225Y-3879321D01*
X1266225Y-3879321D02*
G01*
X1266225Y-4013327D01*
X1266225Y-4013327D02*
G01*
X1052222Y-4013327D01*
X1052222Y-4013327D02*
G01*
X1052222Y-3880327D01*
X1052222Y-3880327D02*
G01*
X942223Y-3770327D01*
X942223Y-3770327D02*
G01*
X850221Y-3770327D01*
X850221Y-3770327D02*
G01*
X850221Y-3556332D01*
X850221Y-3556332D02*
G01*
X935228Y-3556332D01*
X935228Y-3556332D02*
G01*
X945225Y-3546325D01*
X945225Y-3546325D02*
G01*
X945225Y-3546325D01*
X945225Y-3546325D02*
G01*
X1052222Y-3439322D01*
X1052222Y-3439322D02*
G01*
X1052222Y-3359325D01*
X1052222Y-3359325D02*
G01*
X1266225Y-3359325D01*
X1266225Y-3359325D02*
G01*
X1266225Y-3444328D01*
X1266225Y-3444328D02*
G01*
X1378224Y-3556332D01*
X1378224Y-3556332D02*
G01*
X1468226Y-3556332D01*
X3368146Y-3561412D02*
G01*
X3368146Y-3775407D01*
X3368146Y-3775407D02*
G01*
X3275142Y-3775407D01*
X3275142Y-3775407D02*
G01*
X3166145Y-3884401D01*
X3166145Y-3884401D02*
G01*
X3166145Y-4018406D01*
X3166145Y-4018406D02*
G01*
X2952142Y-4018406D01*
X2952142Y-4018406D02*
G01*
X2952142Y-3885407D01*
X2952142Y-3885407D02*
G01*
X2842143Y-3775407D01*
X2842143Y-3775407D02*
G01*
X2750141Y-3775407D01*
X2750141Y-3775407D02*
G01*
X2750141Y-3561412D01*
X2750141Y-3561412D02*
G01*
X2835147Y-3561412D01*
X2835147Y-3561412D02*
G01*
X2845145Y-3551405D01*
X2845145Y-3551405D02*
G01*
X2845145Y-3551405D01*
X2845145Y-3551405D02*
G01*
X2952142Y-3444402D01*
X2952142Y-3444402D02*
G01*
X2952142Y-3364405D01*
X2952142Y-3364405D02*
G01*
X3166145Y-3364405D01*
X3166145Y-3364405D02*
G01*
X3166145Y-3449408D01*
X3166145Y-3449408D02*
G01*
X3278144Y-3561412D01*
X3278144Y-3561412D02*
G01*
X3368146Y-3561412D01*
X5268066Y-3155012D02*
G01*
X5268066Y-3369007D01*
X5268066Y-3369007D02*
G01*
X5175062Y-3369007D01*
X5175062Y-3369007D02*
G01*
X5066065Y-3478001D01*
X5066065Y-3478001D02*
G01*
X5066065Y-3612006D01*
X5066065Y-3612006D02*
G01*
X4852062Y-3612006D01*
X4852062Y-3612006D02*
G01*
X4852062Y-3479007D01*
X4852062Y-3479007D02*
G01*
X4742063Y-3369007D01*
X4742063Y-3369007D02*
G01*
X4650061Y-3369007D01*
X4650061Y-3369007D02*
G01*
X4650061Y-3155012D01*
X4650061Y-3155012D02*
G01*
X4735068Y-3155012D01*
X4735068Y-3155012D02*
G01*
X4745065Y-3145005D01*
X4745065Y-3145005D02*
G01*
X4745065Y-3145005D01*
X4745065Y-3145005D02*
G01*
X4852062Y-3038002D01*
X4852062Y-3038002D02*
G01*
X4852062Y-2958005D01*
X4852062Y-2958005D02*
G01*
X5066065Y-2958005D01*
X5066065Y-2958005D02*
G01*
X5066065Y-3043008D01*
X5066065Y-3043008D02*
G01*
X5178064Y-3155012D01*
X5178064Y-3155012D02*
G01*
X5268066Y-3155012D01*
X7167986Y-2951812D02*
G01*
X7167986Y-3165807D01*
X7167986Y-3165807D02*
G01*
X7074982Y-3165807D01*
X7074982Y-3165807D02*
G01*
X6965985Y-3274801D01*
X6965985Y-3274801D02*
G01*
X6965985Y-3408806D01*
X6965985Y-3408806D02*
G01*
X6751982Y-3408806D01*
X6751982Y-3408806D02*
G01*
X6751982Y-3275807D01*
X6751982Y-3275807D02*
G01*
X6641983Y-3165807D01*
X6641983Y-3165807D02*
G01*
X6549981Y-3165807D01*
X6549981Y-3165807D02*
G01*
X6549981Y-2951812D01*
X6549981Y-2951812D02*
G01*
X6634988Y-2951812D01*
X6634988Y-2951812D02*
G01*
X6644985Y-2941805D01*
X6644985Y-2941805D02*
G01*
X6644985Y-2941805D01*
X6644985Y-2941805D02*
G01*
X6751982Y-2834802D01*
X6751982Y-2834802D02*
G01*
X6751982Y-2754805D01*
X6751982Y-2754805D02*
G01*
X6965985Y-2754805D01*
X6965985Y-2754805D02*
G01*
X6965985Y-2839808D01*
X6965985Y-2839808D02*
G01*
X7077984Y-2951812D01*
X7077984Y-2951812D02*
G01*
X7167986Y-2951812D01*
X9067906Y-3155012D02*
G01*
X9067906Y-3369007D01*
X9067906Y-3369007D02*
G01*
X8974902Y-3369007D01*
X8974902Y-3369007D02*
G01*
X8865905Y-3478001D01*
X8865905Y-3478001D02*
G01*
X8865905Y-3612006D01*
X8865905Y-3612006D02*
G01*
X8651902Y-3612006D01*
X8651902Y-3612006D02*
G01*
X8651902Y-3479007D01*
X8651902Y-3479007D02*
G01*
X8541903Y-3369007D01*
X8541903Y-3369007D02*
G01*
X8449901Y-3369007D01*
X8449901Y-3369007D02*
G01*
X8449901Y-3155012D01*
X8449901Y-3155012D02*
G01*
X8534908Y-3155012D01*
X8534908Y-3155012D02*
G01*
X8544905Y-3145005D01*
X8544905Y-3145005D02*
G01*
X8544905Y-3145005D01*
X8544905Y-3145005D02*
G01*
X8651902Y-3038002D01*
X8651902Y-3038002D02*
G01*
X8651902Y-2958005D01*
X8651902Y-2958005D02*
G01*
X8865905Y-2958005D01*
X8865905Y-2958005D02*
G01*
X8865905Y-3043008D01*
X8865905Y-3043008D02*
G01*
X8977904Y-3155012D01*
X8977904Y-3155012D02*
G01*
X9067906Y-3155012D01*
X10967826Y-3556332D02*
G01*
X10967826Y-3770327D01*
X10967826Y-3770327D02*
G01*
X10874822Y-3770327D01*
X10874822Y-3770327D02*
G01*
X10765825Y-3879321D01*
X10765825Y-3879321D02*
G01*
X10765825Y-4013327D01*
X10765825Y-4013327D02*
G01*
X10551822Y-4013327D01*
X10551822Y-4013327D02*
G01*
X10551822Y-3880327D01*
X10551822Y-3880327D02*
G01*
X10441823Y-3770327D01*
X10441823Y-3770327D02*
G01*
X10349821Y-3770327D01*
X10349821Y-3770327D02*
G01*
X10349821Y-3556332D01*
X10349821Y-3556332D02*
G01*
X10434827Y-3556332D01*
X10434827Y-3556332D02*
G01*
X10444825Y-3546325D01*
X10444825Y-3546325D02*
G01*
X10444825Y-3546325D01*
X10444825Y-3546325D02*
G01*
X10551822Y-3439322D01*
X10551822Y-3439322D02*
G01*
X10551822Y-3359325D01*
X10551822Y-3359325D02*
G01*
X10765825Y-3359325D01*
X10765825Y-3359325D02*
G01*
X10765825Y-3444328D01*
X10765825Y-3444328D02*
G01*
X10877824Y-3556332D01*
X10877824Y-3556332D02*
G01*
X10967826Y-3556332D01*
X1468226Y-5456252D02*
G01*
X1468226Y-5670247D01*
X1468226Y-5670247D02*
G01*
X1375222Y-5670247D01*
X1375222Y-5670247D02*
G01*
X1266225Y-5779241D01*
X1266225Y-5779241D02*
G01*
X1266225Y-5913246D01*
X1266225Y-5913246D02*
G01*
X1052222Y-5913246D01*
X1052222Y-5913246D02*
G01*
X1052222Y-5780247D01*
X1052222Y-5780247D02*
G01*
X942223Y-5670247D01*
X942223Y-5670247D02*
G01*
X850221Y-5670247D01*
X850221Y-5670247D02*
G01*
X850221Y-5456252D01*
X850221Y-5456252D02*
G01*
X935228Y-5456252D01*
X935228Y-5456252D02*
G01*
X945225Y-5446245D01*
X945225Y-5446245D02*
G01*
X945225Y-5446245D01*
X945225Y-5446245D02*
G01*
X1052222Y-5339242D01*
X1052222Y-5339242D02*
G01*
X1052222Y-5259245D01*
X1052222Y-5259245D02*
G01*
X1266225Y-5259245D01*
X1266225Y-5259245D02*
G01*
X1266225Y-5344248D01*
X1266225Y-5344248D02*
G01*
X1378224Y-5456252D01*
X1378224Y-5456252D02*
G01*
X1468226Y-5456252D01*
X3368146Y-5451172D02*
G01*
X3368146Y-5665167D01*
X3368146Y-5665167D02*
G01*
X3275142Y-5665167D01*
X3275142Y-5665167D02*
G01*
X3166145Y-5774161D01*
X3166145Y-5774161D02*
G01*
X3166145Y-5908167D01*
X3166145Y-5908167D02*
G01*
X2952142Y-5908167D01*
X2952142Y-5908167D02*
G01*
X2952142Y-5775167D01*
X2952142Y-5775167D02*
G01*
X2842143Y-5665167D01*
X2842143Y-5665167D02*
G01*
X2750141Y-5665167D01*
X2750141Y-5665167D02*
G01*
X2750141Y-5451172D01*
X2750141Y-5451172D02*
G01*
X2835147Y-5451172D01*
X2835147Y-5451172D02*
G01*
X2845145Y-5441165D01*
X2845145Y-5441165D02*
G01*
X2845145Y-5441165D01*
X2845145Y-5441165D02*
G01*
X2952142Y-5334162D01*
X2952142Y-5334162D02*
G01*
X2952142Y-5254165D01*
X2952142Y-5254165D02*
G01*
X3166145Y-5254165D01*
X3166145Y-5254165D02*
G01*
X3166145Y-5339168D01*
X3166145Y-5339168D02*
G01*
X3278144Y-5451172D01*
X3278144Y-5451172D02*
G01*
X3368146Y-5451172D01*
X5268066Y-5054932D02*
G01*
X5268066Y-5268927D01*
X5268066Y-5268927D02*
G01*
X5175062Y-5268927D01*
X5175062Y-5268927D02*
G01*
X5066065Y-5377921D01*
X5066065Y-5377921D02*
G01*
X5066065Y-5511927D01*
X5066065Y-5511927D02*
G01*
X4852062Y-5511927D01*
X4852062Y-5511927D02*
G01*
X4852062Y-5378927D01*
X4852062Y-5378927D02*
G01*
X4742063Y-5268927D01*
X4742063Y-5268927D02*
G01*
X4650061Y-5268927D01*
X4650061Y-5268927D02*
G01*
X4650061Y-5054932D01*
X4650061Y-5054932D02*
G01*
X4735068Y-5054932D01*
X4735068Y-5054932D02*
G01*
X4745065Y-5044925D01*
X4745065Y-5044925D02*
G01*
X4745065Y-5044925D01*
X4745065Y-5044925D02*
G01*
X4852062Y-4937922D01*
X4852062Y-4937922D02*
G01*
X4852062Y-4857925D01*
X4852062Y-4857925D02*
G01*
X5066065Y-4857925D01*
X5066065Y-4857925D02*
G01*
X5066065Y-4942928D01*
X5066065Y-4942928D02*
G01*
X5178064Y-5054932D01*
X5178064Y-5054932D02*
G01*
X5268066Y-5054932D01*
X7167986Y-4856812D02*
G01*
X7167986Y-5070807D01*
X7167986Y-5070807D02*
G01*
X7074982Y-5070807D01*
X7074982Y-5070807D02*
G01*
X6965985Y-5179801D01*
X6965985Y-5179801D02*
G01*
X6965985Y-5313806D01*
X6965985Y-5313806D02*
G01*
X6751982Y-5313806D01*
X6751982Y-5313806D02*
G01*
X6751982Y-5180807D01*
X6751982Y-5180807D02*
G01*
X6641983Y-5070807D01*
X6641983Y-5070807D02*
G01*
X6549981Y-5070807D01*
X6549981Y-5070807D02*
G01*
X6549981Y-4856812D01*
X6549981Y-4856812D02*
G01*
X6634988Y-4856812D01*
X6634988Y-4856812D02*
G01*
X6644985Y-4846805D01*
X6644985Y-4846805D02*
G01*
X6644985Y-4846805D01*
X6644985Y-4846805D02*
G01*
X6751982Y-4739802D01*
X6751982Y-4739802D02*
G01*
X6751982Y-4659805D01*
X6751982Y-4659805D02*
G01*
X6965985Y-4659805D01*
X6965985Y-4659805D02*
G01*
X6965985Y-4744808D01*
X6965985Y-4744808D02*
G01*
X7077984Y-4856812D01*
X7077984Y-4856812D02*
G01*
X7167986Y-4856812D01*
X9067906Y-5054932D02*
G01*
X9067906Y-5268927D01*
X9067906Y-5268927D02*
G01*
X8974902Y-5268927D01*
X8974902Y-5268927D02*
G01*
X8865905Y-5377921D01*
X8865905Y-5377921D02*
G01*
X8865905Y-5511927D01*
X8865905Y-5511927D02*
G01*
X8651902Y-5511927D01*
X8651902Y-5511927D02*
G01*
X8651902Y-5378927D01*
X8651902Y-5378927D02*
G01*
X8541903Y-5268927D01*
X8541903Y-5268927D02*
G01*
X8449901Y-5268927D01*
X8449901Y-5268927D02*
G01*
X8449901Y-5054932D01*
X8449901Y-5054932D02*
G01*
X8534908Y-5054932D01*
X8534908Y-5054932D02*
G01*
X8544905Y-5044925D01*
X8544905Y-5044925D02*
G01*
X8544905Y-5044925D01*
X8544905Y-5044925D02*
G01*
X8651902Y-4937922D01*
X8651902Y-4937922D02*
G01*
X8651902Y-4857925D01*
X8651902Y-4857925D02*
G01*
X8865905Y-4857925D01*
X8865905Y-4857925D02*
G01*
X8865905Y-4942928D01*
X8865905Y-4942928D02*
G01*
X8977904Y-5054932D01*
X8977904Y-5054932D02*
G01*
X9067906Y-5054932D01*
X10967826Y-5451172D02*
G01*
X10967826Y-5665167D01*
X10967826Y-5665167D02*
G01*
X10874822Y-5665167D01*
X10874822Y-5665167D02*
G01*
X10765825Y-5774161D01*
X10765825Y-5774161D02*
G01*
X10765825Y-5908167D01*
X10765825Y-5908167D02*
G01*
X10551822Y-5908167D01*
X10551822Y-5908167D02*
G01*
X10551822Y-5775167D01*
X10551822Y-5775167D02*
G01*
X10441823Y-5665167D01*
X10441823Y-5665167D02*
G01*
X10349821Y-5665167D01*
X10349821Y-5665167D02*
G01*
X10349821Y-5451172D01*
X10349821Y-5451172D02*
G01*
X10434827Y-5451172D01*
X10434827Y-5451172D02*
G01*
X10444825Y-5441165D01*
X10444825Y-5441165D02*
G01*
X10444825Y-5441165D01*
X10444825Y-5441165D02*
G01*
X10551822Y-5334162D01*
X10551822Y-5334162D02*
G01*
X10551822Y-5254165D01*
X10551822Y-5254165D02*
G01*
X10765825Y-5254165D01*
X10765825Y-5254165D02*
G01*
X10765825Y-5339168D01*
X10765825Y-5339168D02*
G01*
X10877824Y-5451172D01*
X10877824Y-5451172D02*
G01*
X10967826Y-5451172D01*
X1468226Y-7356172D02*
G01*
X1468226Y-7570167D01*
X1468226Y-7570167D02*
G01*
X1375222Y-7570167D01*
X1375222Y-7570167D02*
G01*
X1266225Y-7679161D01*
X1266225Y-7679161D02*
G01*
X1266225Y-7813167D01*
X1266225Y-7813167D02*
G01*
X1052222Y-7813167D01*
X1052222Y-7813167D02*
G01*
X1052222Y-7680167D01*
X1052222Y-7680167D02*
G01*
X942223Y-7570167D01*
X942223Y-7570167D02*
G01*
X850221Y-7570167D01*
X850221Y-7570167D02*
G01*
X850221Y-7356172D01*
X850221Y-7356172D02*
G01*
X935228Y-7356172D01*
X935228Y-7356172D02*
G01*
X945225Y-7346165D01*
X945225Y-7346165D02*
G01*
X945225Y-7346165D01*
X945225Y-7346165D02*
G01*
X1052222Y-7239162D01*
X1052222Y-7239162D02*
G01*
X1052222Y-7159165D01*
X1052222Y-7159165D02*
G01*
X1266225Y-7159165D01*
X1266225Y-7159165D02*
G01*
X1266225Y-7244168D01*
X1266225Y-7244168D02*
G01*
X1378224Y-7356172D01*
X1378224Y-7356172D02*
G01*
X1468226Y-7356172D01*
X3368146Y-7351092D02*
G01*
X3368146Y-7565087D01*
X3368146Y-7565087D02*
G01*
X3275142Y-7565087D01*
X3275142Y-7565087D02*
G01*
X3166145Y-7674081D01*
X3166145Y-7674081D02*
G01*
X3166145Y-7808087D01*
X3166145Y-7808087D02*
G01*
X2952142Y-7808087D01*
X2952142Y-7808087D02*
G01*
X2952142Y-7675087D01*
X2952142Y-7675087D02*
G01*
X2842143Y-7565087D01*
X2842143Y-7565087D02*
G01*
X2750141Y-7565087D01*
X2750141Y-7565087D02*
G01*
X2750141Y-7351092D01*
X2750141Y-7351092D02*
G01*
X2835147Y-7351092D01*
X2835147Y-7351092D02*
G01*
X2845145Y-7341085D01*
X2845145Y-7341085D02*
G01*
X2845145Y-7341085D01*
X2845145Y-7341085D02*
G01*
X2952142Y-7234082D01*
X2952142Y-7234082D02*
G01*
X2952142Y-7154085D01*
X2952142Y-7154085D02*
G01*
X3166145Y-7154085D01*
X3166145Y-7154085D02*
G01*
X3166145Y-7239088D01*
X3166145Y-7239088D02*
G01*
X3278144Y-7351092D01*
X3278144Y-7351092D02*
G01*
X3368146Y-7351092D01*
X5268066Y-6949772D02*
G01*
X5268066Y-7163767D01*
X5268066Y-7163767D02*
G01*
X5175062Y-7163767D01*
X5175062Y-7163767D02*
G01*
X5066065Y-7272761D01*
X5066065Y-7272761D02*
G01*
X5066065Y-7406767D01*
X5066065Y-7406767D02*
G01*
X4852062Y-7406767D01*
X4852062Y-7406767D02*
G01*
X4852062Y-7273767D01*
X4852062Y-7273767D02*
G01*
X4742063Y-7163767D01*
X4742063Y-7163767D02*
G01*
X4650061Y-7163767D01*
X4650061Y-7163767D02*
G01*
X4650061Y-6949772D01*
X4650061Y-6949772D02*
G01*
X4735068Y-6949772D01*
X4735068Y-6949772D02*
G01*
X4745065Y-6939765D01*
X4745065Y-6939765D02*
G01*
X4745065Y-6939765D01*
X4745065Y-6939765D02*
G01*
X4852062Y-6832762D01*
X4852062Y-6832762D02*
G01*
X4852062Y-6752765D01*
X4852062Y-6752765D02*
G01*
X5066065Y-6752765D01*
X5066065Y-6752765D02*
G01*
X5066065Y-6837768D01*
X5066065Y-6837768D02*
G01*
X5178064Y-6949772D01*
X5178064Y-6949772D02*
G01*
X5268066Y-6949772D01*
X7167986Y-6751652D02*
G01*
X7167986Y-6965647D01*
X7167986Y-6965647D02*
G01*
X7074982Y-6965647D01*
X7074982Y-6965647D02*
G01*
X6965985Y-7074641D01*
X6965985Y-7074641D02*
G01*
X6965985Y-7208646D01*
X6965985Y-7208646D02*
G01*
X6751982Y-7208646D01*
X6751982Y-7208646D02*
G01*
X6751982Y-7075647D01*
X6751982Y-7075647D02*
G01*
X6641983Y-6965647D01*
X6641983Y-6965647D02*
G01*
X6549981Y-6965647D01*
X6549981Y-6965647D02*
G01*
X6549981Y-6751652D01*
X6549981Y-6751652D02*
G01*
X6634988Y-6751652D01*
X6634988Y-6751652D02*
G01*
X6644985Y-6741645D01*
X6644985Y-6741645D02*
G01*
X6644985Y-6741645D01*
X6644985Y-6741645D02*
G01*
X6751982Y-6634642D01*
X6751982Y-6634642D02*
G01*
X6751982Y-6554645D01*
X6751982Y-6554645D02*
G01*
X6965985Y-6554645D01*
X6965985Y-6554645D02*
G01*
X6965985Y-6639648D01*
X6965985Y-6639648D02*
G01*
X7077984Y-6751652D01*
X7077984Y-6751652D02*
G01*
X7167986Y-6751652D01*
X9067906Y-6954852D02*
G01*
X9067906Y-7168847D01*
X9067906Y-7168847D02*
G01*
X8974902Y-7168847D01*
X8974902Y-7168847D02*
G01*
X8865905Y-7277841D01*
X8865905Y-7277841D02*
G01*
X8865905Y-7411846D01*
X8865905Y-7411846D02*
G01*
X8651902Y-7411846D01*
X8651902Y-7411846D02*
G01*
X8651902Y-7278847D01*
X8651902Y-7278847D02*
G01*
X8541903Y-7168847D01*
X8541903Y-7168847D02*
G01*
X8449901Y-7168847D01*
X8449901Y-7168847D02*
G01*
X8449901Y-6954852D01*
X8449901Y-6954852D02*
G01*
X8534908Y-6954852D01*
X8534908Y-6954852D02*
G01*
X8544905Y-6944845D01*
X8544905Y-6944845D02*
G01*
X8544905Y-6944845D01*
X8544905Y-6944845D02*
G01*
X8651902Y-6837842D01*
X8651902Y-6837842D02*
G01*
X8651902Y-6757845D01*
X8651902Y-6757845D02*
G01*
X8865905Y-6757845D01*
X8865905Y-6757845D02*
G01*
X8865905Y-6842848D01*
X8865905Y-6842848D02*
G01*
X8977904Y-6954852D01*
X8977904Y-6954852D02*
G01*
X9067906Y-6954852D01*
X10967826Y-7351092D02*
G01*
X10967826Y-7565087D01*
X10967826Y-7565087D02*
G01*
X10874822Y-7565087D01*
X10874822Y-7565087D02*
G01*
X10765825Y-7674081D01*
X10765825Y-7674081D02*
G01*
X10765825Y-7808087D01*
X10765825Y-7808087D02*
G01*
X10551822Y-7808087D01*
X10551822Y-7808087D02*
G01*
X10551822Y-7675087D01*
X10551822Y-7675087D02*
G01*
X10441823Y-7565087D01*
X10441823Y-7565087D02*
G01*
X10349821Y-7565087D01*
X10349821Y-7565087D02*
G01*
X10349821Y-7351092D01*
X10349821Y-7351092D02*
G01*
X10434827Y-7351092D01*
X10434827Y-7351092D02*
G01*
X10444825Y-7341085D01*
X10444825Y-7341085D02*
G01*
X10444825Y-7341085D01*
X10444825Y-7341085D02*
G01*
X10551822Y-7234082D01*
X10551822Y-7234082D02*
G01*
X10551822Y-7154085D01*
X10551822Y-7154085D02*
G01*
X10765825Y-7154085D01*
X10765825Y-7154085D02*
G01*
X10765825Y-7239088D01*
X10765825Y-7239088D02*
G01*
X10877824Y-7351092D01*
X10877824Y-7351092D02*
G01*
X10967826Y-7351092D01*
X12867746Y-7351092D02*
G01*
X12867746Y-7565087D01*
X12867746Y-7565087D02*
G01*
X12774742Y-7565087D01*
X12774742Y-7565087D02*
G01*
X12665745Y-7674081D01*
X12665745Y-7674081D02*
G01*
X12665745Y-7808087D01*
X12665745Y-7808087D02*
G01*
X12451742Y-7808087D01*
X12451742Y-7808087D02*
G01*
X12451742Y-7675087D01*
X12451742Y-7675087D02*
G01*
X12341743Y-7565087D01*
X12341743Y-7565087D02*
G01*
X12249741Y-7565087D01*
X12249741Y-7565087D02*
G01*
X12249741Y-7351092D01*
X12249741Y-7351092D02*
G01*
X12334747Y-7351092D01*
X12334747Y-7351092D02*
G01*
X12344745Y-7341085D01*
X12344745Y-7341085D02*
G01*
X12344745Y-7341085D01*
X12344745Y-7341085D02*
G01*
X12451742Y-7234082D01*
X12451742Y-7234082D02*
G01*
X12451742Y-7154085D01*
X12451742Y-7154085D02*
G01*
X12665745Y-7154085D01*
X12665745Y-7154085D02*
G01*
X12665745Y-7239088D01*
X12665745Y-7239088D02*
G01*
X12777744Y-7351092D01*
X12777744Y-7351092D02*
G01*
X12867746Y-7351092D01*
X12867746Y-9251012D02*
G01*
X12867746Y-9465007D01*
X12867746Y-9465007D02*
G01*
X12774742Y-9465007D01*
X12774742Y-9465007D02*
G01*
X12665745Y-9574001D01*
X12665745Y-9574001D02*
G01*
X12665745Y-9708006D01*
X12665745Y-9708006D02*
G01*
X12451742Y-9708006D01*
X12451742Y-9708006D02*
G01*
X12451742Y-9575007D01*
X12451742Y-9575007D02*
G01*
X12341743Y-9465007D01*
X12341743Y-9465007D02*
G01*
X12249741Y-9465007D01*
X12249741Y-9465007D02*
G01*
X12249741Y-9251012D01*
X12249741Y-9251012D02*
G01*
X12334747Y-9251012D01*
X12334747Y-9251012D02*
G01*
X12344745Y-9241005D01*
X12344745Y-9241005D02*
G01*
X12344745Y-9241005D01*
X12344745Y-9241005D02*
G01*
X12451742Y-9134002D01*
X12451742Y-9134002D02*
G01*
X12451742Y-9054005D01*
X12451742Y-9054005D02*
G01*
X12665745Y-9054005D01*
X12665745Y-9054005D02*
G01*
X12665745Y-9139008D01*
X12665745Y-9139008D02*
G01*
X12777744Y-9251012D01*
X12777744Y-9251012D02*
G01*
X12867746Y-9251012D01*
X10967826Y-9256092D02*
G01*
X10967826Y-9470087D01*
X10967826Y-9470087D02*
G01*
X10874822Y-9470087D01*
X10874822Y-9470087D02*
G01*
X10765825Y-9579081D01*
X10765825Y-9579081D02*
G01*
X10765825Y-9713087D01*
X10765825Y-9713087D02*
G01*
X10551822Y-9713087D01*
X10551822Y-9713087D02*
G01*
X10551822Y-9580087D01*
X10551822Y-9580087D02*
G01*
X10441823Y-9470087D01*
X10441823Y-9470087D02*
G01*
X10349821Y-9470087D01*
X10349821Y-9470087D02*
G01*
X10349821Y-9256092D01*
X10349821Y-9256092D02*
G01*
X10434827Y-9256092D01*
X10434827Y-9256092D02*
G01*
X10444825Y-9246085D01*
X10444825Y-9246085D02*
G01*
X10444825Y-9246085D01*
X10444825Y-9246085D02*
G01*
X10551822Y-9139082D01*
X10551822Y-9139082D02*
G01*
X10551822Y-9059085D01*
X10551822Y-9059085D02*
G01*
X10765825Y-9059085D01*
X10765825Y-9059085D02*
G01*
X10765825Y-9144088D01*
X10765825Y-9144088D02*
G01*
X10877824Y-9256092D01*
X10877824Y-9256092D02*
G01*
X10967826Y-9256092D01*
X9067906Y-8859852D02*
G01*
X9067906Y-9073847D01*
X9067906Y-9073847D02*
G01*
X8974902Y-9073847D01*
X8974902Y-9073847D02*
G01*
X8865905Y-9182841D01*
X8865905Y-9182841D02*
G01*
X8865905Y-9316846D01*
X8865905Y-9316846D02*
G01*
X8651902Y-9316846D01*
X8651902Y-9316846D02*
G01*
X8651902Y-9183847D01*
X8651902Y-9183847D02*
G01*
X8541903Y-9073847D01*
X8541903Y-9073847D02*
G01*
X8449901Y-9073847D01*
X8449901Y-9073847D02*
G01*
X8449901Y-8859852D01*
X8449901Y-8859852D02*
G01*
X8534908Y-8859852D01*
X8534908Y-8859852D02*
G01*
X8544905Y-8849845D01*
X8544905Y-8849845D02*
G01*
X8544905Y-8849845D01*
X8544905Y-8849845D02*
G01*
X8651902Y-8742842D01*
X8651902Y-8742842D02*
G01*
X8651902Y-8662845D01*
X8651902Y-8662845D02*
G01*
X8865905Y-8662845D01*
X8865905Y-8662845D02*
G01*
X8865905Y-8747848D01*
X8865905Y-8747848D02*
G01*
X8977904Y-8859852D01*
X8977904Y-8859852D02*
G01*
X9067906Y-8859852D01*

%LPD*%
M02*
