G04 Layer: BottomSolderMaskLayer*
G04 EasyEDA v6.5.23, 2023-06-09 15:01:11*
G04 604b8d365768463b9eb07bbcea70d2b6,6219c82cfec74c238c9999bd11a2e976,10*
G04 Gerber Generator version 0.2*
G04 Scale: 100 percent, Rotated: No, Reflected: No *
G04 Dimensions in millimeters *
G04 leading zeros omitted , absolute positions ,4 integer and 5 decimal *
%FSLAX45Y45*%
%MOMM*%

%ADD10O,1.4015974000000002X2.3015956*%
%ADD11C,1.4016*%
%ADD12C,1.7016*%

%LPD*%
D10*
G01*
X12889915Y-1767916D03*
G01*
X13609904Y-1767916D03*
D11*
G01*
X13492403Y-2034920D03*
G01*
X13007416Y-2034920D03*
D12*
G01*
X1617243Y-2124532D03*
G01*
X1158239Y-2386533D03*
G01*
X699236Y-2124532D03*
G01*
X3517163Y-2119452D03*
G01*
X3058159Y-2381453D03*
G01*
X2599156Y-2119452D03*
G01*
X5417083Y-1723212D03*
G01*
X4958079Y-1985213D03*
G01*
X4499076Y-1723212D03*
G01*
X7317003Y-1520012D03*
G01*
X6858000Y-1782013D03*
G01*
X6398996Y-1520012D03*
G01*
X9216923Y-1723212D03*
G01*
X8757920Y-1985213D03*
G01*
X8298916Y-1723212D03*
G01*
X11116843Y-2119452D03*
G01*
X10657840Y-2381453D03*
G01*
X10198836Y-2119452D03*
G01*
X1617243Y-4024452D03*
G01*
X1158239Y-4286453D03*
G01*
X699236Y-4024452D03*
G01*
X3517163Y-4029532D03*
G01*
X3058159Y-4291533D03*
G01*
X2599156Y-4029532D03*
G01*
X5417083Y-3623132D03*
G01*
X4958079Y-3885133D03*
G01*
X4499076Y-3623132D03*
G01*
X7317003Y-3419932D03*
G01*
X6858000Y-3681933D03*
G01*
X6398996Y-3419932D03*
G01*
X9216923Y-3623132D03*
G01*
X8757920Y-3885133D03*
G01*
X8298916Y-3623132D03*
G01*
X11116843Y-4024452D03*
G01*
X10657840Y-4286453D03*
G01*
X10198836Y-4024452D03*
G01*
X1617243Y-5924372D03*
G01*
X1158239Y-6186373D03*
G01*
X699236Y-5924372D03*
G01*
X3517163Y-5919292D03*
G01*
X3058159Y-6181293D03*
G01*
X2599156Y-5919292D03*
G01*
X5417083Y-5523052D03*
G01*
X4958079Y-5785053D03*
G01*
X4499076Y-5523052D03*
G01*
X7317003Y-5324932D03*
G01*
X6858000Y-5586933D03*
G01*
X6398996Y-5324932D03*
G01*
X9216923Y-5523052D03*
G01*
X8757920Y-5785053D03*
G01*
X8298916Y-5523052D03*
G01*
X11116843Y-5919292D03*
G01*
X10657840Y-6181293D03*
G01*
X10198836Y-5919292D03*
G01*
X1617243Y-7824292D03*
G01*
X1158239Y-8086293D03*
G01*
X699236Y-7824292D03*
G01*
X3517163Y-7819212D03*
G01*
X3058159Y-8081213D03*
G01*
X2599156Y-7819212D03*
G01*
X5417083Y-7417892D03*
G01*
X4958079Y-7679893D03*
G01*
X4499076Y-7417892D03*
G01*
X7317003Y-7219772D03*
G01*
X6858000Y-7481773D03*
G01*
X6398996Y-7219772D03*
G01*
X9216923Y-7422972D03*
G01*
X8757920Y-7684973D03*
G01*
X8298916Y-7422972D03*
G01*
X11116843Y-7819212D03*
G01*
X10657840Y-8081213D03*
G01*
X10198836Y-7819212D03*
G01*
X13016763Y-7819212D03*
G01*
X12557759Y-8081213D03*
G01*
X12098756Y-7819212D03*
G01*
X13016763Y-9719132D03*
G01*
X12557759Y-9981133D03*
G01*
X12098756Y-9719132D03*
G01*
X11116843Y-9724212D03*
G01*
X10657840Y-9986213D03*
G01*
X10198836Y-9724212D03*
G01*
X9216923Y-9327972D03*
G01*
X8757920Y-9589973D03*
G01*
X8298916Y-9327972D03*
M02*
